<svg width="395" height="81" viewBox="0 0 395 81" fill="none" xmlns="http://www.w3.org/2000/svg">
<path d="M35.0394 3.29C31.9247 1.49198 28.1874 0.554046 23.749 0.554046C19.95 0.519131 16.1766 1.18144 12.6147 2.50834C9.34434 3.75911 6.69606 5.63526 4.82845 8.05837C2.96083 10.4815 2.02539 13.374 2.02539 16.6572C2.02539 21.4256 3.81636 25.4123 7.55367 28.5389C11.2131 31.6658 16.2742 33.5418 22.737 34.1671C27.4088 34.6362 30.8348 35.9651 33.1706 38.0757C35.4285 40.1851 36.5966 42.6878 36.5966 45.6581C36.5966 48.7851 35.195 51.2863 32.5476 53.0855C29.8224 54.8835 26.5521 55.7433 22.6588 55.7433C19.4973 55.7873 16.3719 55.0637 13.5489 53.634C10.7459 52.2269 8.95489 50.507 8.02064 48.4746C7.64695 47.6999 7.07534 47.0385 6.36407 46.5579C5.65279 46.0773 4.8273 45.7946 3.97173 45.7387C3.58228 45.7387 3.35027 45.8168 3.19313 45.8168C2.18105 46.0512 1.40216 46.4407 0.857356 47.0676C0.578345 47.3253 0.357552 47.6401 0.209828 47.9906C0.062104 48.3412 -0.00912443 48.7195 0.000934739 49.1C-0.000939558 49.6455 0.132928 50.1829 0.390382 50.6633C1.94757 54.4156 4.75062 57.386 8.87766 59.6528C13.0044 61.9978 17.5984 63.0923 22.6594 63.0923C26.3322 63.1314 29.9789 62.4682 33.4046 61.138C36.6037 59.917 39.4056 57.8344 41.5025 55.1188C43.5269 52.461 44.539 49.1769 44.539 45.4258C44.539 40.2667 42.826 36.1237 39.3999 32.9968C35.9739 29.8699 31.1464 27.9165 24.9174 27.2905C19.3113 26.7433 15.418 25.5707 13.2379 23.6957C11.0571 21.8957 9.96668 19.6277 9.96668 16.8916C9.96668 13.9994 11.1347 11.8113 13.6262 10.2471C16.04 8.68376 19.2324 7.9021 23.2033 7.9021C26.3958 7.9021 29.0432 8.52748 31.1455 9.77826C33.3301 11.0718 35.1519 12.9007 36.4403 15.0939C36.7654 15.7981 37.3127 16.375 37.9975 16.7353C38.6598 17.1166 39.4145 17.3061 40.1776 17.2826C40.8916 17.3061 41.5964 17.1156 42.2021 16.7353C42.6791 16.4385 43.0726 16.0242 43.3452 15.5316C43.6178 15.0391 43.7603 14.4847 43.7592 13.9213C43.7127 12.9146 43.3893 11.9406 42.825 11.1072C40.6449 7.74583 38.0753 5.16526 35.0385 3.29H35.0394Z" fill="#EE8572"/>
<path d="M90.5485 42.7668C90.8748 42.4387 91.1325 42.0484 91.3063 41.6187C91.4802 41.1891 91.5666 40.7289 91.5606 40.2653C91.5606 36.2004 90.782 32.5266 89.2248 29.3215C87.73 26.2647 85.4097 23.6911 82.5285 21.8941C79.5691 20.1743 76.1437 19.2363 72.1726 19.2363C68.1237 19.2363 64.4642 20.1743 61.2717 22.0504C58.1165 23.888 55.5293 26.5665 53.7968 29.7891C52.0058 33.0723 51.1494 36.8243 51.1494 40.9673C51.1494 45.1884 52.0837 48.8626 53.9525 52.1455C55.8187 55.4264 58.5724 58.1096 61.8947 59.8845C65.2428 61.7607 69.0583 62.6205 73.3407 62.6205C75.8897 62.6096 78.4179 62.1601 80.8156 61.2916C83.2068 60.5464 85.4475 59.3819 87.4341 57.8521C88.2127 57.2282 88.68 56.4451 88.68 55.5071C88.68 54.5692 88.2127 53.631 87.2784 52.8493C86.6069 52.3375 85.7858 52.0627 84.9427 52.0677C84.0137 52.0525 83.1073 52.3557 82.3731 52.9275C81.1078 53.8762 79.6839 54.5905 78.1685 55.0368C76.6236 55.6112 74.9884 55.9024 73.341 55.8966C69.3699 55.8966 66.0217 54.8021 63.2965 52.5353C60.5713 50.3466 58.9362 47.3759 58.3911 43.7021H87.9795C88.9234 43.7273 89.8417 43.3921 90.5491 42.7641L90.5485 42.7668ZM62.9068 29.0871C65.2425 27.0547 68.3572 25.9602 72.1726 25.9602C75.5986 25.9602 78.3239 27.0547 80.504 29.0871C82.6051 31.1965 83.93 34.0117 84.3973 37.4512H58.4687C59.0916 34.0117 60.571 31.1977 62.9068 29.0871Z" fill="#EE8572"/>
<path d="M99.298 2.35352C98.9328 2.72175 98.6474 3.16183 98.4598 3.64612C98.2722 4.13041 98.1864 4.64842 98.2078 5.16761V47.8486C98.2078 50.6627 98.6751 53.1642 99.6875 55.3529C100.546 57.4317 101.978 59.2215 103.814 60.5123C105.601 61.7359 107.726 62.3648 109.888 62.3103H110.043C111.601 62.3103 112.846 61.9978 113.859 61.2158C114.314 60.9025 114.687 60.4825 114.945 59.9923C115.203 59.502 115.338 58.9561 115.339 58.4017C115.337 57.3742 114.979 56.3793 114.326 55.5876C114.015 55.2347 113.631 54.954 113.201 54.765C112.77 54.576 112.304 54.4832 111.835 54.4931H109.888C108.72 54.4931 107.786 53.8678 107.085 52.617C106.306 51.3662 105.995 49.8029 105.995 47.8486V5.16761C106.018 4.64803 105.932 4.12939 105.745 3.64464C105.557 3.15988 105.271 2.71964 104.905 2.35189C104.538 1.98414 104.1 1.69694 103.617 1.50853C103.134 1.32013 102.617 1.23465 102.1 1.25754C101.583 1.23967 101.068 1.32748 100.586 1.51564C100.104 1.70379 99.6658 1.98836 99.2968 2.35204L99.298 2.35352Z" fill="#EE8572"/>
<path d="M121.801 2.35346C121.435 2.72168 121.15 3.16177 120.962 3.64606C120.775 4.13035 120.689 4.64836 120.71 5.16754V47.8486C120.71 50.6626 121.178 53.1642 122.19 55.3529C123.049 57.4316 124.481 59.2214 126.317 60.5122C128.104 61.7358 130.228 62.3648 132.39 62.3103H132.546C134.103 62.3103 135.349 61.9977 136.361 61.2158C136.817 60.9024 137.19 60.4825 137.447 59.9922C137.705 59.5019 137.84 58.9561 137.841 58.4017C137.839 57.3741 137.481 56.3792 136.829 55.5876C136.517 55.2346 136.133 54.9539 135.703 54.7649C135.272 54.5759 134.806 54.4832 134.337 54.4931H132.39C131.222 54.4931 130.288 53.8677 129.587 52.6169C128.809 51.3662 128.497 49.8028 128.497 47.8486V5.16754C128.52 4.6481 128.435 4.12958 128.247 3.64494C128.06 3.16029 127.774 2.72012 127.407 2.35239C127.041 1.98467 126.603 1.69743 126.12 1.50893C125.638 1.32043 125.121 1.2348 124.604 1.25747C124.087 1.2396 123.572 1.32742 123.09 1.51557C122.608 1.70373 122.17 1.98829 121.801 2.35197V2.35346Z" fill="#EE8572"/>
<path d="M182.615 42.7668C182.941 42.4387 183.199 42.0484 183.373 41.6187C183.546 41.1891 183.633 40.7289 183.627 40.2653C183.627 36.2004 182.848 32.5266 181.291 29.3215C179.796 26.2647 177.476 23.6911 174.595 21.8941C171.635 20.1743 168.21 19.2363 164.239 19.2363C160.19 19.2363 156.531 20.1743 153.338 22.0504C150.183 23.888 147.596 26.5665 145.863 29.7891C144.072 33.0723 143.216 36.8243 143.216 40.9673C143.216 45.1884 144.15 48.8626 146.019 52.1455C147.885 55.4264 150.639 58.1096 153.961 59.8845C157.309 61.7607 161.125 62.6205 165.407 62.6205C167.956 62.6096 170.484 62.1601 172.882 61.2916C175.273 60.5464 177.514 59.3819 179.5 57.8521C180.279 57.2282 180.746 56.4451 180.746 55.5071C180.746 54.5692 180.279 53.631 179.345 52.8493C178.673 52.3375 177.852 52.0627 177.009 52.0677C176.08 52.0525 175.174 52.3557 174.439 52.9275C173.174 53.8762 171.75 54.5905 170.235 55.0368C168.69 55.6112 167.055 55.9024 165.407 55.8966C161.436 55.8966 158.088 54.8021 155.363 52.5353C152.638 50.3466 151.003 47.3759 150.458 43.7021H180.046C180.99 43.7273 181.908 43.3921 182.615 42.7641L182.615 42.7668ZM154.973 29.0871C157.309 27.0547 160.424 25.9602 164.239 25.9602C167.665 25.9602 170.39 27.0547 172.57 29.0871C174.671 31.1965 175.996 34.0117 176.464 37.4512H150.535C151.158 34.0117 152.637 31.1977 154.973 29.0871V29.0871Z" fill="#EE8572"/>
<path d="M217.601 20.333C216.044 19.5513 213.864 19.0822 211.138 19.0822C208.615 19.0713 206.119 19.6044 203.819 20.6455C201.614 21.6482 199.649 23.1143 198.057 24.9448V23.4593C198.057 20.8796 196.734 19.5507 194.164 19.5507C192.918 19.5507 191.906 19.9417 191.283 20.5671C190.583 21.2706 190.271 22.2085 190.271 23.4593V58.4019C190.271 59.7309 190.582 60.7469 191.283 61.3729C191.905 61.9968 192.918 62.3108 194.164 62.3108C195.41 62.3108 196.422 61.9983 197.045 61.2948C197.666 60.6709 198.057 59.6533 198.057 58.4025V35.5761C198.057 32.6838 199.147 30.3386 201.483 28.619C203.741 26.8991 206.778 26.0393 210.515 26.0393C211.761 26.0393 213.474 26.2737 215.575 26.5865C215.953 26.7057 216.348 26.7585 216.743 26.7428C218.3 26.7428 219.391 25.9612 219.858 24.2413C219.858 24.085 219.936 23.8503 219.936 23.4596C219.936 22.2088 219.157 21.1928 217.6 20.3327L217.601 20.333Z" fill="#EE8572"/>
<path d="M260.089 3.29C256.975 1.49198 253.238 0.554046 248.799 0.554046C245 0.519131 241.227 1.18144 237.665 2.50834C234.395 3.75911 231.746 5.63526 229.878 8.05837C228.011 10.4815 227.075 13.374 227.075 16.6572C227.075 21.4256 228.866 25.4123 232.604 28.5389C236.263 31.6658 241.324 33.5418 247.787 34.1671C252.459 34.6362 255.885 35.9651 258.22 38.0757C260.478 40.1851 261.646 42.6878 261.646 45.6581C261.646 48.7851 260.245 51.2863 257.597 53.0855C254.872 54.8835 251.602 55.7433 247.709 55.7433C244.547 55.7873 241.422 55.0637 238.599 53.634C235.796 52.2269 234.005 50.507 233.071 48.4746C232.697 47.6999 232.125 47.0385 231.414 46.5579C230.703 46.0773 229.877 45.7946 229.022 45.7387C228.632 45.7387 228.4 45.8168 228.243 45.8168C227.231 46.0512 226.452 46.4407 225.907 47.0676C225.628 47.3253 225.408 47.6401 225.26 47.9906C225.112 48.3412 225.041 48.7195 225.051 49.1C225.05 49.6449 225.184 50.1815 225.441 50.6612C226.998 54.4135 229.802 57.3839 233.929 59.6507C238.055 61.9957 242.649 63.0902 247.71 63.0902C251.383 63.1293 255.03 62.4661 258.455 61.1359C261.654 59.9149 264.456 57.8323 266.553 55.1168C268.578 52.459 269.59 49.1749 269.59 45.4237C269.59 40.2646 267.877 36.1216 264.451 32.9948C261.025 29.8678 256.197 27.9144 249.968 27.2885C244.362 26.7412 240.469 25.5686 238.289 23.6936C236.109 21.8958 235.019 19.6288 235.019 16.8928C235.019 14.0006 236.187 11.8125 238.678 10.2483C241.092 8.68495 244.284 7.90329 248.255 7.90329C251.448 7.90329 254.095 8.52867 256.197 9.77944C258.382 11.0729 260.204 12.9019 261.492 15.0951C261.817 15.7993 262.365 16.3762 263.049 16.7365C263.712 17.1178 264.466 17.3072 265.229 17.2838C265.943 17.3073 266.648 17.1168 267.254 16.7365C267.731 16.4397 268.124 16.0254 268.397 15.5328C268.67 15.0402 268.812 14.4859 268.811 13.9224C268.765 12.9158 268.441 11.9418 267.877 11.1084C265.697 7.74702 263.127 5.16645 260.091 3.29118L260.089 3.29Z" fill="#5A5A5A"/>
<path d="M319.101 40.9687C319.153 37.1104 318.186 33.3071 316.297 29.9465C314.45 26.6848 311.76 23.9841 308.511 22.1293C305.195 20.2182 301.434 19.2205 297.61 19.2371H279.935C279.443 19.2268 278.953 19.3187 278.498 19.507C278.042 19.6953 277.63 19.9761 277.288 20.3316C276.931 20.6735 276.65 21.0867 276.462 21.5445C276.274 22.0023 276.184 22.4945 276.198 22.9894V76.6151C276.198 77.8659 276.509 78.8038 277.288 79.5073C277.989 80.289 278.923 80.6018 280.169 80.6018C280.686 80.6233 281.202 80.5372 281.684 80.3488C282.167 80.1605 282.605 79.874 282.972 79.5073C283.75 78.8038 284.14 77.8659 284.14 76.6151V55.5083C285.905 57.7524 288.172 59.5469 290.758 60.7461C293.687 62.125 296.909 62.7606 300.14 62.597C303.372 62.4335 306.513 61.4758 309.29 59.8081C312.337 57.9345 314.815 55.2579 316.453 52.0694C318.221 48.6404 319.13 44.8304 319.101 40.9693V40.9687ZM311.47 40.9687C311.518 43.592 310.873 46.1812 309.601 48.4731C308.426 50.6273 306.708 52.4335 304.618 53.7106C302.471 54.9401 300.043 55.5867 297.571 55.5867C295.1 55.5867 292.671 54.9401 290.525 53.7106C288.44 52.4523 286.742 50.6397 285.619 48.4731C284.374 46.2844 283.828 43.7828 283.828 40.9687C283.828 38.2328 284.374 35.7312 285.619 33.4644C286.742 31.2978 288.44 29.4852 290.525 28.2269C292.654 26.948 295.09 26.2726 297.571 26.2726C300.053 26.2726 302.488 26.948 304.618 28.2269C306.708 29.504 308.426 31.3102 309.601 33.4644C310.855 35.7635 311.499 38.3478 311.47 40.9687H311.47Z" fill="#5A5A5A"/>
<path d="M357.77 22.0525C354.423 20.1562 350.635 19.1852 346.791 19.2384C342.587 19.2384 338.927 20.1763 335.657 22.0525C332.444 23.8317 329.799 26.4876 328.026 29.7131C326.158 32.9963 325.301 36.7483 325.301 40.9697C325.301 45.1911 326.158 48.865 328.026 52.1479C329.796 55.3953 332.44 58.0768 335.657 59.8854C338.927 61.7616 342.587 62.6213 346.791 62.6213C350.918 62.6213 354.578 61.7616 357.848 59.8854C361.048 58.0542 363.687 55.3777 365.478 52.1467C367.269 48.8635 368.204 45.1896 368.204 40.9685C368.204 36.7474 367.269 32.9951 365.401 29.7119C363.606 26.5033 360.966 23.8528 357.77 22.0513L357.77 22.0525ZM339.628 28.1498C341.802 26.8834 344.279 26.2348 346.792 26.2736C349.28 26.2347 351.731 26.8838 353.877 28.1498C355.962 29.408 357.66 31.2207 358.782 33.3872C359.985 35.7308 360.6 38.3336 360.573 40.9697C360.609 43.6068 359.994 46.2118 358.782 48.5521C357.657 50.6963 355.958 52.483 353.877 53.7115C351.731 54.9775 349.28 55.6265 346.792 55.5876C344.279 55.6264 341.802 54.9779 339.628 53.7115C337.547 52.483 335.848 50.6963 334.723 48.5521C333.477 46.3634 332.932 43.7838 332.932 40.9697C332.932 38.1556 333.477 35.6541 334.723 33.3872C335.845 31.2207 337.543 29.408 339.628 28.1498V28.1498Z" fill="#5A5A5A"/>
<path d="M374.404 21.1138V47.1444C374.404 50.0366 374.949 52.6163 376.195 54.8831C377.288 57.1319 378.988 59.0276 381.1 60.355C383.2 61.6702 385.633 62.3489 388.108 62.3093H389.509C390.833 62.3093 391.923 61.9968 392.78 61.2148C393.203 60.8808 393.542 60.4528 393.772 59.9644C394.002 59.476 394.115 58.9407 394.103 58.4008C394.102 57.3732 393.744 56.3783 393.091 55.5867C392.806 55.2432 392.448 54.967 392.045 54.7778C391.641 54.5887 391.201 54.4911 390.755 54.4922H388.108C387.29 54.5054 386.481 54.3206 385.749 53.9534C385.017 53.5862 384.384 53.0475 383.903 52.3828C382.735 50.9757 382.191 49.2559 382.191 47.1453V27.8365H388.809C389.778 27.8753 390.726 27.5397 391.456 26.8985C391.774 26.5967 392.028 26.2332 392.202 25.8302C392.376 25.4271 392.467 24.9928 392.469 24.5536C392.475 24.0899 392.388 23.6297 392.214 23.2001C392.04 22.7705 391.783 22.3801 391.456 22.052C390.726 21.4109 389.778 21.0752 388.809 21.1141H382.191V9.85746C382.213 9.33814 382.128 8.81978 381.94 8.33532C381.753 7.85085 381.467 7.41086 381.1 7.04329C380.734 6.67573 380.296 6.38863 379.813 6.20022C379.331 6.01181 378.815 5.92622 378.297 5.94888C377.781 5.93101 377.266 6.01882 376.784 6.20698C376.302 6.39513 375.863 6.67969 375.494 7.04337C375.129 7.4116 374.844 7.85169 374.656 8.33597C374.468 8.82026 374.383 9.33828 374.404 9.85746V21.1138Z" fill="#5A5A5A"/>
</svg>
